<svg width="265" height="35" viewBox="0 0 265 35" fill="none" xmlns="http://www.w3.org/2000/svg">
<path d="M42.3342 17.5441C42.3342 27.2787 33.018 34.9674 21.1671 34.9674C9.31615 34.9504 0 27.2787 0 17.5441C0 7.75845 9.31615 0.0185547 21.1671 0.0185547C33.0345 0.0185547 42.3342 7.75845 42.3342 17.5441ZM32.5571 17.5441C32.5571 11.7989 27.6357 7.57092 21.1671 7.57092C14.6984 7.57092 9.77702 11.8159 9.77702 17.5441C9.77702 23.2382 14.6984 27.4321 21.1671 27.4321C27.6357 27.415 32.5571 23.2382 32.5571 17.5441Z" fill="url(#paint0_linear_657_1660)"/>
<path d="M64.7685 0.0166016C73.7225 0.0166016 79.3517 4.65372 79.3517 11.5412C79.3517 18.5821 73.5415 23.2192 64.357 23.2192H57.1641C55.9626 23.2192 54.9915 24.2251 54.9915 25.4696V32.7492C54.9915 33.9937 54.0204 34.9995 52.8188 34.9995H47.3707C46.1691 34.9995 45.198 33.9937 45.198 32.7492V2.26697C45.198 1.02245 46.1691 0.0166016 47.3707 0.0166016H64.7685V0.0166016ZM63.6328 16.3488C67.435 16.3488 69.7393 14.5076 69.7393 11.6605C69.7393 8.96691 67.435 7.07456 63.6328 7.07456H57.1477C55.9461 7.07456 54.975 8.08041 54.975 9.32493V14.1155C54.975 15.36 55.9461 16.3658 57.1477 16.3658H63.6328V16.3488Z" fill="url(#paint1_linear_657_1660)"/>
<path d="M111.316 35.0001H83.4661C82.6102 35.0001 81.9189 34.2841 81.9189 33.4146V1.61966C81.9189 0.750205 82.6102 0.0341797 83.4661 0.0341797H111.135C111.991 0.0341797 112.682 0.750205 112.682 1.61966V5.42142C112.682 6.29088 111.991 7.0069 111.135 7.0069H93.2596C92.4037 7.0069 91.7124 7.72293 91.7124 8.59239V12.6328C91.7124 13.5023 92.4037 14.2183 93.2596 14.2183H109.423C110.279 14.2183 110.97 14.9343 110.97 15.8038V19.2134C110.97 20.0829 110.279 20.7989 109.423 20.7989H93.2596C92.4037 20.7989 91.7124 21.5149 91.7124 22.3844V26.4248C91.7124 27.2943 92.4037 28.0103 93.2596 28.0103H111.316C112.172 28.0103 112.863 28.7263 112.863 29.5958V33.3975C112.863 34.3011 112.172 35.0001 111.316 35.0001Z" fill="url(#paint2_linear_657_1660)"/>
<path d="M152.054 34.983H146.277C145.865 34.983 145.454 34.8125 145.158 34.5056L126.608 15.8037C126.196 15.3945 125.538 15.7014 125.538 16.3151V33.2099C125.538 34.1987 124.797 35 123.892 35H117.407C116.501 35 115.761 34.1987 115.761 33.2099V1.79006C115.761 0.801266 116.501 0 117.407 0H123.217C123.645 0 124.056 0.170482 124.353 0.494398L142.903 19.7589C143.314 20.1851 143.973 19.8612 143.973 19.2645V1.79006C143.973 0.801266 144.713 0 145.618 0H152.054C152.959 0 153.7 0.801266 153.7 1.79006V33.2099C153.7 34.1817 152.976 34.983 152.054 34.983Z" fill="url(#paint3_linear_657_1660)"/>
<path d="M244.59 14.2698C244.063 13.1275 242.5 13.1275 241.973 14.2698L240.179 18.1908C239.718 19.1967 240.426 20.3389 241.496 20.3389H245.117C246.187 20.3389 246.894 19.1796 246.434 18.1738L244.59 14.2698Z" fill="url(#paint4_linear_657_1660)"/>
<path d="M263.37 0H158.226C157.337 0 156.596 0.750122 156.596 1.68777V33.2781C156.596 34.1987 157.321 34.9659 158.226 34.9659H263.37C264.259 34.9659 265 34.2158 265 33.2781V1.68777C265 0.750122 264.275 0 263.37 0ZM175.262 31.6586C168.958 31.6586 163.625 29.4593 161.765 25.4189C161.32 24.4472 161.896 23.3049 162.917 23.1344L168.135 22.282C168.793 22.1797 169.435 22.5207 169.764 23.1344C170.818 25.1802 172.924 26.1008 175.706 26.1008C178.685 26.1008 180.479 24.9586 180.479 23.3049C180.479 22.0945 179.804 21.3103 177.5 20.9182L170.752 19.7077C166.127 18.8212 162.077 16.7925 162.077 11.8485C162.077 6.58061 167.279 3.29031 174.834 3.29031C180.858 3.29031 185.467 5.42134 187.425 9.13785C187.936 10.0925 187.343 11.2859 186.306 11.4735L181.632 12.2747C180.973 12.3941 180.315 12.0531 180.018 11.4564C179.08 9.59815 176.941 8.67755 174.751 8.67755C172.101 8.67755 170.423 9.88797 170.423 11.4394C170.423 12.5304 170.999 13.3488 173.023 13.7068L179.722 14.9683C185.302 16.0253 188.577 18.5826 188.577 22.8787C188.561 28.6751 182.438 31.6586 175.262 31.6586ZM224.789 22.5037C222.682 28.3171 216.575 31.6586 208.971 31.6586C199.391 31.6586 191.82 25.453 191.82 17.4744C191.82 9.52996 199.375 3.29031 208.971 3.29031C216.23 3.29031 222.484 6.61471 224.69 12.1042C225.019 12.9226 224.525 13.8432 223.686 14.0136L218.55 15.0195C217.909 15.1388 217.283 14.7808 217.036 14.1671C215.736 10.962 212.707 9.41062 208.954 9.41062C203.852 9.41062 199.754 12.8544 199.754 17.4744C199.754 22.0945 203.852 25.5894 208.954 25.5894C212.674 25.5894 215.736 23.9698 217.086 20.6284C217.332 20.0317 217.925 19.6737 218.55 19.7759L223.702 20.6284C224.575 20.7647 225.101 21.6853 224.789 22.5037ZM258.712 31.0619H253.132C252.638 31.0619 252.194 30.772 251.98 30.3117L250.416 26.8851C250.202 26.4247 249.758 26.1349 249.264 26.1349H237.298C236.804 26.1349 236.36 26.4247 236.146 26.8851L234.582 30.3117C234.368 30.772 233.924 31.0619 233.43 31.0619H227.801C226.846 31.0619 226.221 30.0219 226.665 29.1354L238.845 4.62007C239.059 4.17682 239.504 3.90404 239.981 3.90404H246.565C247.042 3.90404 247.486 4.17682 247.7 4.62007L259.881 29.1354C260.292 30.0049 259.667 31.0619 258.712 31.0619Z" fill="url(#paint5_linear_657_1660)"/>
<defs>
<linearGradient id="paint0_linear_657_1660" x1="73.3933" y1="16.7507" x2="184.579" y2="15.2803" gradientUnits="userSpaceOnUse">
<stop stop-color="#CE237F"/>
<stop offset="1" stop-color="#2A6BC7"/>
</linearGradient>
<linearGradient id="paint1_linear_657_1660" x1="73.3989" y1="17.1828" x2="184.585" y2="15.7123" gradientUnits="userSpaceOnUse">
<stop stop-color="#CE237F"/>
<stop offset="1" stop-color="#2A6BC7"/>
</linearGradient>
<linearGradient id="paint2_linear_657_1660" x1="73.4073" y1="17.8545" x2="184.593" y2="16.3839" gradientUnits="userSpaceOnUse">
<stop stop-color="#CE237F"/>
<stop offset="1" stop-color="#2A6BC7"/>
</linearGradient>
<linearGradient id="paint3_linear_657_1660" x1="73.4149" y1="18.3603" x2="184.601" y2="16.8898" gradientUnits="userSpaceOnUse">
<stop stop-color="#CE237F"/>
<stop offset="1" stop-color="#2A6BC7"/>
</linearGradient>
<linearGradient id="paint4_linear_657_1660" x1="73.4279" y1="19.3123" x2="184.613" y2="17.8418" gradientUnits="userSpaceOnUse">
<stop stop-color="#CE237F"/>
<stop offset="1" stop-color="#2A6BC7"/>
</linearGradient>
<linearGradient id="paint5_linear_657_1660" x1="73.4283" y1="19.4275" x2="184.614" y2="17.957" gradientUnits="userSpaceOnUse">
<stop stop-color="#CE237F"/>
<stop offset="1" stop-color="#2A6BC7"/>
</linearGradient>
</defs>
</svg>
